# xmcd
# 
# Track frame offsets:
#     150
#     18305
#     36972
#     62360
#     83730
#     101600
#     127467
#     145667
#     164272
#     181275
#     204957
# 
# Disc length: 3008
# 
# Revision: 3
# Processed by: cddbd v1.5.2PL0 Copyright (c) Steve Scherf et al.
# Submitted via: fre:ac v1.0.31
# 
DISCID=8e0bbe0b
DTITLE=El Debarge - Heart, Mind and Soul
DYEAR=0
DGENRE=R&B
TTITLE0=Where You Are
TTITLE1=Can't Get Enough
TTITLE2=Where is My Love?
TTITLE3=You Got the Love I Want
TTITLE4=It's Got to Be Real
TTITLE5=Slide
TTITLE6=I'll Be There
TTITLE7=Special Lady
TTITLE8=Starlight, Moonlight, Candlelight
TTITLE9=You are My Dream
TTITLE10=Hear, Mind and Soul
EXTD=
EXTT0=
EXTT1=
EXTT2=
EXTT3=
EXTT4=
EXTT5=
EXTT6=
EXTT7=
EXTT8=
EXTT9=
EXTT10=
PLAYORDER=
